<svg width="1200" height="800" viewBox="0 0 1200 800" fill="none" xmlns="http://www.w3.org/2000/svg">
  <defs>
    <radialGradient id="bgGlow" cx="0" cy="0" r="1" gradientUnits="userSpaceOnUse" gradientTransform="translate(600 360) rotate(90) scale(360 520)">
      <stop stop-color="#244EA9"/>
      <stop offset="1" stop-color="#0A1431"/>
    </radialGradient>
    <linearGradient id="desk" x1="150" y1="576" x2="1050" y2="660" gradientUnits="userSpaceOnUse">
      <stop stop-color="#1E3C86"/>
      <stop offset="1" stop-color="#2352B6"/>
    </linearGradient>
    <linearGradient id="hoodie" x1="500" y1="410" x2="700" y2="610" gradientUnits="userSpaceOnUse">
      <stop stop-color="#FBBF24"/>
      <stop offset="1" stop-color="#F59E0B"/>
    </linearGradient>
    <linearGradient id="laptop" x1="450" y1="470" x2="750" y2="610" gradientUnits="userSpaceOnUse">
      <stop stop-color="#7F8EA9"/>
      <stop offset="1" stop-color="#4D5A74"/>
    </linearGradient>
  </defs>

  <rect x="20" y="20" width="1160" height="760" rx="52" fill="#081127"/>
  <rect x="20" y="20" width="1160" height="760" rx="52" fill="url(#bgGlow)"/>

  <circle cx="420" cy="430" r="9" fill="#22D3EE" opacity="0.8"/>
  <circle cx="465" cy="370" r="6" fill="#F59E0B" opacity="0.85"/>
  <circle cx="795" cy="390" r="8" fill="#22D3EE" opacity="0.75"/>
  <circle cx="845" cy="455" r="5" fill="#FBBF24" opacity="0.8"/>

  <rect x="130" y="560" width="940" height="120" rx="26" fill="url(#desk)"/>
  <rect x="130" y="560" width="940" height="120" rx="26" fill="#091735" fill-opacity="0.25"/>

  <ellipse cx="600" cy="548" rx="170" ry="38" fill="#081127" fill-opacity="0.45"/>

  <path d="M470 610C478 542 520 502 600 502C680 502 722 542 730 610H470Z" fill="url(#hoodie)"/>
  <path d="M520 548C540 530 565 520 600 520C635 520 660 530 680 548" stroke="#FFD88A" stroke-width="10" stroke-linecap="round"/>

  <rect x="455" y="475" width="290" height="155" rx="18" fill="url(#laptop)"/>
  <rect x="475" y="495" width="250" height="95" rx="12" fill="#1E293B"/>
  <path d="M420 630H780C770 648 748 660 722 660H478C452 660 430 648 420 630Z" fill="#3C4A63"/>

  <ellipse cx="600" cy="385" rx="118" ry="108" fill="#FFC998"/>
  <ellipse cx="600" cy="420" rx="90" ry="62" fill="#F7B782"/>

  <path d="M498 342C515 280 560 250 615 250C670 250 713 282 730 338C697 323 664 315 615 315C566 315 530 324 498 342Z" fill="#2C1A13"/>
  <path d="M505 330C535 290 565 274 612 274C659 274 688 294 718 332" stroke="#4A2A1E" stroke-width="20" stroke-linecap="round"/>

  <rect x="510" y="356" width="78" height="56" rx="18" stroke="#0F234F" stroke-width="8" fill="#E7F2FF"/>
  <rect x="612" y="356" width="78" height="56" rx="18" stroke="#0F234F" stroke-width="8" fill="#E7F2FF"/>
  <path d="M588 384H612" stroke="#0F234F" stroke-width="8" stroke-linecap="round"/>
  <circle cx="548" cy="384" r="8" fill="#0E1B37"/>
  <circle cx="650" cy="384" r="8" fill="#0E1B37"/>

  <path d="M565 433C575 445 586 450 600 450C614 450 625 445 635 433" stroke="#A54D34" stroke-width="8" stroke-linecap="round"/>
  <ellipse cx="525" cy="423" rx="12" ry="7" fill="#F39A78"/>
  <ellipse cx="675" cy="423" rx="12" ry="7" fill="#F39A78"/>

  <rect x="500" y="522" width="26" height="70" rx="13" fill="#FFC998"/>
  <rect x="674" y="522" width="26" height="70" rx="13" fill="#FFC998"/>

  <rect x="300" y="520" width="90" height="60" rx="14" fill="#111E3E"/>
  <circle cx="327" cy="552" r="8" fill="#22D3EE"/>
  <circle cx="352" cy="552" r="8" fill="#F59E0B"/>
  <circle cx="377" cy="552" r="8" fill="#60A5FA"/>

  <rect x="820" y="526" width="120" height="24" rx="12" fill="#132852"/>
  <rect x="828" y="534" width="30" height="8" rx="4" fill="#22D3EE"/>
  <rect x="866" y="534" width="30" height="8" rx="4" fill="#F59E0B"/>
  <rect x="904" y="534" width="30" height="8" rx="4" fill="#60A5FA"/>
</svg>
