<svg width="1200" height="900" viewBox="0 0 1200 900" fill="none" xmlns="http://www.w3.org/2000/svg">
  <defs>
    <linearGradient id="bg" x1="0" y1="0" x2="1200" y2="900" gradientUnits="userSpaceOnUse">
      <stop stop-color="#F7F4FF"/>
      <stop offset="1" stop-color="#FFF7FE"/>
    </linearGradient>
    <linearGradient id="blob1" x1="160" y1="170" x2="700" y2="560" gradientUnits="userSpaceOnUse">
      <stop stop-color="#6D28D9"/>
      <stop offset="1" stop-color="#D53AED"/>
    </linearGradient>
    <linearGradient id="blob2" x1="550" y1="300" x2="1040" y2="760" gradientUnits="userSpaceOnUse">
      <stop stop-color="#D53AED"/>
      <stop offset="1" stop-color="#A78BFA"/>
    </linearGradient>
    <filter id="blur" x="-80" y="-80" width="1360" height="1060" filterUnits="userSpaceOnUse" color-interpolation-filters="sRGB">
      <feGaussianBlur stdDeviation="40"/>
    </filter>
  </defs>

  <rect width="1200" height="900" rx="36" fill="url(#bg)"/>

  <g filter="url(#blur)" opacity="0.9">
    <ellipse cx="390" cy="350" rx="290" ry="220" fill="url(#blob1)"/>
    <ellipse cx="820" cy="560" rx="300" ry="220" fill="url(#blob2)"/>
  </g>

  <g opacity="0.25" stroke="#6D28D9" stroke-width="2">
    <path d="M140 220H1060"/>
    <path d="M140 330H1060"/>
    <path d="M140 440H1060"/>
    <path d="M140 550H1060"/>
    <path d="M140 660H1060"/>
    <path d="M250 140V760"/>
    <path d="M470 140V760"/>
    <path d="M690 140V760"/>
    <path d="M910 140V760"/>
  </g>

  <g>
    <rect x="220" y="250" width="320" height="180" rx="24" fill="white" fill-opacity="0.8"/>
    <rect x="660" y="420" width="320" height="180" rx="24" fill="white" fill-opacity="0.8"/>
    <rect x="430" y="590" width="280" height="130" rx="24" fill="white" fill-opacity="0.82"/>
  </g>

  <g fill="#6D28D9" fill-opacity="0.9">
    <circle cx="280" cy="300" r="10"/>
    <circle cx="315" cy="300" r="10"/>
    <circle cx="350" cy="300" r="10"/>
    <circle cx="720" cy="470" r="10"/>
    <circle cx="755" cy="470" r="10"/>
    <circle cx="790" cy="470" r="10"/>
  </g>

  <g fill="#D53AED" fill-opacity="0.8">
    <rect x="270" y="338" width="220" height="14" rx="7"/>
    <rect x="270" y="365" width="180" height="14" rx="7"/>
    <rect x="270" y="392" width="200" height="14" rx="7"/>
    <rect x="710" y="508" width="220" height="14" rx="7"/>
    <rect x="710" y="535" width="180" height="14" rx="7"/>
    <rect x="710" y="562" width="200" height="14" rx="7"/>
    <rect x="475" y="640" width="190" height="14" rx="7"/>
    <rect x="475" y="667" width="140" height="14" rx="7"/>
  </g>
</svg>
