<svg width="1600" height="900" viewBox="0 0 1600 900" fill="none" xmlns="http://www.w3.org/2000/svg">
  <defs>
    <linearGradient id="bg" x1="170" y1="120" x2="1430" y2="820" gradientUnits="userSpaceOnUse">
      <stop offset="0" stop-color="#18285E"/>
      <stop offset="0.48" stop-color="#3548B6"/>
      <stop offset="1" stop-color="#1B9BC4"/>
    </linearGradient>
    <radialGradient id="glowA" cx="0" cy="0" r="1" gradientUnits="userSpaceOnUse" gradientTransform="translate(520 180) rotate(20) scale(460 300)">
      <stop stop-color="#8A7CFF" stop-opacity="0.62"/>
      <stop offset="1" stop-color="#8A7CFF" stop-opacity="0"/>
    </radialGradient>
    <radialGradient id="glowB" cx="0" cy="0" r="1" gradientUnits="userSpaceOnUse" gradientTransform="translate(1220 680) rotate(-10) scale(420 300)">
      <stop stop-color="#48D9F6" stop-opacity="0.5"/>
      <stop offset="1" stop-color="#48D9F6" stop-opacity="0"/>
    </radialGradient>
    <radialGradient id="glowC" cx="0" cy="0" r="1" gradientUnits="userSpaceOnUse" gradientTransform="translate(280 720) rotate(-24) scale(340 220)">
      <stop stop-color="#65F0C6" stop-opacity="0.34"/>
      <stop offset="1" stop-color="#65F0C6" stop-opacity="0"/>
    </radialGradient>
    <pattern id="grid" width="400" height="200" patternUnits="userSpaceOnUse">
      <path d="M0 100H400" stroke="#F8FAFC" stroke-width="4" stroke-linecap="round" stroke-dasharray="1 18" opacity="0.72"/>
      <path d="M200 0V200" stroke="#F8FAFC" stroke-width="4" stroke-linecap="round" stroke-dasharray="1 18" opacity="0.72"/>
    </pattern>
    <filter id="blurSoft" x="-200" y="-200" width="2000" height="1300" filterUnits="userSpaceOnUse">
      <feGaussianBlur stdDeviation="46"/>
    </filter>
    <linearGradient id="frameStroke" x1="580" y1="220" x2="1040" y2="700" gradientUnits="userSpaceOnUse">
      <stop stop-color="#FFFFFF" stop-opacity="0.9"/>
      <stop offset="1" stop-color="#D8E5FF" stop-opacity="0.56"/>
    </linearGradient>
    <linearGradient id="cardFill" x1="610" y1="250" x2="1010" y2="650" gradientUnits="userSpaceOnUse">
      <stop stop-color="#FFFFFF" stop-opacity="0.12"/>
      <stop offset="1" stop-color="#FFFFFF" stop-opacity="0.03"/>
    </linearGradient>
  </defs>

  <rect width="1600" height="900" fill="url(#bg)"/>

  <g filter="url(#blurSoft)">
    <ellipse cx="520" cy="180" rx="460" ry="300" fill="url(#glowA)"/>
    <ellipse cx="1220" cy="680" rx="420" ry="300" fill="url(#glowB)"/>
    <ellipse cx="280" cy="720" rx="340" ry="220" fill="url(#glowC)"/>
  </g>

  <rect width="1600" height="900" fill="url(#grid)" opacity="0.86"/>

  <g opacity="0.75">
    <circle cx="365" cy="162" r="2.5" fill="#FFFFFF"/>
    <circle cx="1125" cy="182" r="2" fill="#FFFFFF" fill-opacity="0.78"/>
    <circle cx="1260" cy="284" r="1.6" fill="#FFFFFF" fill-opacity="0.62"/>
    <circle cx="1015" cy="130" r="1.8" fill="#FFFFFF" fill-opacity="0.5"/>
    <circle cx="1355" cy="690" r="2" fill="#FFFFFF" fill-opacity="0.72"/>
    <circle cx="260" cy="610" r="1.7" fill="#FFFFFF" fill-opacity="0.56"/>
  </g>

  <g>
    <rect x="560" y="204" width="480" height="492" rx="54" fill="url(#cardFill)" stroke="url(#frameStroke)" stroke-width="4"/>
    <path d="M622 290H978" stroke="#FFFFFF" stroke-width="4" stroke-linecap="round" opacity="0.78"/>
    <path d="M622 338H714" stroke="#FFFFFF" stroke-width="8" stroke-linecap="round" opacity="0.92"/>
    <path d="M754 338H930" stroke="#FFFFFF" stroke-width="8" stroke-linecap="round" opacity="0.44"/>
    <path d="M690 420L730 380L760 410" stroke="#FFFFFF" stroke-width="8" stroke-linecap="round" stroke-linejoin="round" opacity="0.95"/>
    <path d="M810 418H888" stroke="#FFFFFF" stroke-width="8" stroke-linecap="round" opacity="0.74"/>
    <path d="M688 500H912" stroke="#FFFFFF" stroke-width="8" stroke-linecap="round" opacity="0.54"/>
    <path d="M688 558H958" stroke="#FFFFFF" stroke-width="8" stroke-linecap="round" opacity="0.34"/>
    <rect x="906" y="430" width="86" height="86" rx="24" stroke="#FFFFFF" stroke-width="4" opacity="0.82"/>
    <circle cx="949" cy="473" r="18" stroke="#FFFFFF" stroke-width="4"/>
    <path d="M962 486L984 508" stroke="#FFFFFF" stroke-width="4" stroke-linecap="round"/>
    <path d="M720 636H880" stroke="#FFFFFF" stroke-width="10" stroke-linecap="round" opacity="0.28"/>
  </g>
</svg>
