<svg width="1600" height="900" viewBox="0 0 1600 900" fill="none" xmlns="http://www.w3.org/2000/svg">
  <defs>
    <linearGradient id="bg" x1="130" y1="70" x2="1480" y2="820" gradientUnits="userSpaceOnUse">
      <stop offset="0" stop-color="#1D5C11"/>
      <stop offset="0.42" stop-color="#1E97BF"/>
      <stop offset="1" stop-color="#0F4D24"/>
    </linearGradient>
    <radialGradient id="glowA" cx="0" cy="0" r="1" gradientUnits="userSpaceOnUse" gradientTransform="translate(380 700) rotate(-18) scale(420 260)">
      <stop stop-color="#5DE4C1" stop-opacity="0.42"/>
      <stop offset="1" stop-color="#5DE4C1" stop-opacity="0"/>
    </radialGradient>
    <radialGradient id="glowB" cx="0" cy="0" r="1" gradientUnits="userSpaceOnUse" gradientTransform="translate(1180 170) rotate(10) scale(430 290)">
      <stop stop-color="#4DBFFF" stop-opacity="0.4"/>
      <stop offset="1" stop-color="#4DBFFF" stop-opacity="0"/>
    </radialGradient>
    <radialGradient id="glowC" cx="0" cy="0" r="1" gradientUnits="userSpaceOnUse" gradientTransform="translate(840 450) rotate(0) scale(240 180)">
      <stop stop-color="#FFFFFF" stop-opacity="0.08"/>
      <stop offset="1" stop-color="#FFFFFF" stop-opacity="0"/>
    </radialGradient>
    <pattern id="grid" width="400" height="200" patternUnits="userSpaceOnUse">
      <path d="M0 100H400" stroke="#F8FAFC" stroke-width="4" stroke-linecap="round" stroke-dasharray="1 18" opacity="0.76"/>
      <path d="M200 0V200" stroke="#F8FAFC" stroke-width="4" stroke-linecap="round" stroke-dasharray="1 18" opacity="0.76"/>
    </pattern>
    <filter id="blurSoft" x="-200" y="-200" width="2000" height="1300" filterUnits="userSpaceOnUse">
      <feGaussianBlur stdDeviation="48"/>
    </filter>
    <linearGradient id="frameStroke" x1="350" y1="245" x2="1220" y2="675" gradientUnits="userSpaceOnUse">
      <stop stop-color="#FFFFFF" stop-opacity="0.88"/>
      <stop offset="1" stop-color="#D8FFEE" stop-opacity="0.5"/>
    </linearGradient>
    <linearGradient id="cardFill" x1="410" y1="280" x2="1185" y2="620" gradientUnits="userSpaceOnUse">
      <stop stop-color="#FFFFFF" stop-opacity="0.1"/>
      <stop offset="1" stop-color="#FFFFFF" stop-opacity="0.03"/>
    </linearGradient>
  </defs>

  <rect width="1600" height="900" fill="url(#bg)"/>

  <g filter="url(#blurSoft)">
    <ellipse cx="380" cy="700" rx="420" ry="260" fill="url(#glowA)"/>
    <ellipse cx="1180" cy="170" rx="430" ry="290" fill="url(#glowB)"/>
    <ellipse cx="840" cy="450" rx="240" ry="180" fill="url(#glowC)"/>
  </g>

  <rect width="1600" height="900" fill="url(#grid)" opacity="0.86"/>

  <g>
    <rect x="280" y="292" width="1040" height="316" rx="64" fill="url(#cardFill)" stroke="url(#frameStroke)" stroke-width="4"/>

    <circle cx="492" cy="450" r="98" stroke="#FFFFFF" stroke-width="5"/>
    <path d="M438 478L488 428L526 466" stroke="#FFFFFF" stroke-width="7" stroke-linecap="round" stroke-linejoin="round"/>
    <path d="M554 478H626" stroke="#FFFFFF" stroke-width="7" stroke-linecap="round" opacity="0.92"/>
    <path d="M624 478L652 450" stroke="#FFFFFF" stroke-width="7" stroke-linecap="round" opacity="0.92"/>

    <path d="M714 402H826" stroke="#FFFFFF" stroke-width="6" stroke-linecap="round" opacity="0.9"/>
    <path d="M714 498H826" stroke="#FFFFFF" stroke-width="6" stroke-linecap="round" opacity="0.9"/>
    <path d="M800 402L838 364" stroke="#FFFFFF" stroke-width="6" stroke-linecap="round" opacity="0.9"/>
    <path d="M800 498L838 536" stroke="#FFFFFF" stroke-width="6" stroke-linecap="round" opacity="0.9"/>

    <rect x="910" y="340" width="92" height="92" rx="18" stroke="#FFFFFF" stroke-width="4" stroke-dasharray="8 10"/>
    <path d="M940 388H972" stroke="#FFFFFF" stroke-width="6" stroke-linecap="round"/>
    <path d="M940 388V366H970L980 376V388" stroke="#FFFFFF" stroke-width="4" stroke-linecap="round" stroke-linejoin="round"/>

    <rect x="1028" y="340" width="92" height="92" rx="18" stroke="#FFFFFF" stroke-width="4" stroke-dasharray="8 10"/>
    <ellipse cx="1074" cy="366" rx="18" ry="8" stroke="#FFFFFF" stroke-width="4"/>
    <path d="M1056 366V398C1056 402.418 1064.06 406 1074 406C1083.94 406 1092 402.418 1092 398V366" stroke="#FFFFFF" stroke-width="4"/>

    <rect x="910" y="456" width="92" height="92" rx="18" stroke="#FFFFFF" stroke-width="4" stroke-dasharray="8 10"/>
    <path d="M942 482H978" stroke="#FFFFFF" stroke-width="6" stroke-linecap="round"/>
    <path d="M942 510H970" stroke="#FFFFFF" stroke-width="6" stroke-linecap="round" opacity="0.78"/>

    <rect x="1028" y="456" width="92" height="92" rx="18" stroke="#FFFFFF" stroke-width="4" stroke-dasharray="8 10"/>
    <circle cx="1074" cy="502" r="20" stroke="#FFFFFF" stroke-width="4"/>
    <path d="M1054 502H1094" stroke="#FFFFFF" stroke-width="4" stroke-linecap="round" opacity="0.8"/>
    <path d="M1074 482C1082 489 1082 515 1074 522C1066 515 1066 489 1074 482Z" stroke="#FFFFFF" stroke-width="4" stroke-linejoin="round" opacity="0.8"/>
  </g>
</svg>
